<svg width="312" height="312" viewBox="0 0 312 312" fill="none" xmlns="http://www.w3.org/2000/svg">
<g clip-path="url(#clip0)">
<path d="M192.261 15.8407L192.265 15.8383C192.152 15.6908 192.137 15.6829 192.261 15.8407Z" fill="black"/>
<path d="M302.25 14.625C302.25 9.24056 297.884 4.875 292.5 4.875H257.001C241.239 4.875 226.948 11.2917 216.602 21.6499C213.059 10.7792 207.934 4.21627 207.489 3.6593L207.484 3.66234C205.698 1.43203 202.955 0 199.875 0C191.657 0 187.209 9.52453 192.266 15.8377C192.205 15.8888 201.129 26.7375 200.4 44.7403C179.867 37.7709 159.76 37.6137 145.289 39.0475C130.233 40.5393 107.377 49.0096 88.3868 68.3079C62.7522 94.3575 53.5007 130.165 54.2764 167.15C55.0077 202.036 9.75 213.27 9.75 253.5C9.75 277.04 22.0033 294.296 45.1845 303.403C64.581 311.023 88.5422 312 107.25 312C119.069 312 127.791 311.259 142.655 307.21C209.272 289.063 290.743 201.648 268.842 121.256C263.597 102.003 255.225 85.9146 243.83 73.125C278.119 73.125 302.25 47.0096 302.25 14.625V14.625ZM250.027 126.382C268.603 194.575 195.37 272.64 137.529 288.396C124.638 291.908 117.77 292.5 107.25 292.5C52.5769 292.5 29.25 280.837 29.25 253.5C29.25 223.978 74.7069 211.323 73.7722 166.741C72.0373 84.0474 126.197 60.5347 147.212 58.4525C158.572 57.327 177.296 57.0899 196.02 63.8509C192.817 71.5272 198.226 78.0037 204.746 78.0024C208.159 78.0024 211.418 76.1944 213.187 73.125H214.4C229.458 83.2839 242.791 99.8211 250.027 126.382V126.382ZM245.124 53.625H220.315C224.133 36.8958 239.132 24.375 257.001 24.375H281.81C277.992 41.1042 262.993 53.625 245.124 53.625Z" fill="black"/>
<path d="M95.2012 218.398C90.9418 203.727 88.7605 183.48 89.9856 162.706C91.5846 135.592 98.847 110.011 112.387 95.7728C140.317 66.4047 186.743 65.2284 216.082 93.1307C244.937 120.572 243.14 162.956 214.726 192.834C211.692 196.024 208.82 197.65 206.068 198.464C203.248 199.299 200.089 199.42 196.311 198.917C192.47 198.407 188.323 197.305 183.525 195.906C182.643 195.649 181.737 195.381 180.809 195.106C176.859 193.938 172.531 192.658 168.097 191.628C156.948 189.038 144.092 187.748 129.992 192.81C118.619 196.893 107.08 204.873 95.2012 218.398Z" stroke="black" stroke-width="15"/>
<circle cx="131.5" cy="138.5" r="8.5" fill="black"/>
<circle cx="153.5" cy="138.5" r="8.5" fill="black"/>
<circle cx="175.5" cy="138.5" r="8.5" fill="black"/>
<circle cx="197.5" cy="138.5" r="8.5" fill="black"/>
</g>
<defs>
<clipPath id="clip0">
<rect width="312" height="312" fill="white"/>
</clipPath>
</defs>
</svg>
